<?xml version="1.0" standalone="no"?>
<!DOCTYPE svg PUBLIC "-//W3C//DTD SVG 20010904//EN"
 "http://www.w3.org/TR/2001/REC-SVG-20010904/DTD/svg10.dtd">
<svg version="1.0" xmlns="http://www.w3.org/2000/svg"
 width="1024.000000pt" height="1024.000000pt" viewBox="0 0 1024.000000 1024.000000"
 preserveAspectRatio="xMidYMid meet">

<g transform="translate(0.000000,1024.000000) scale(0.100000,-0.100000)"
fill="#000000" stroke="none">
<path d="M4950 9567 c-74 -35 -227 -108 -340 -162 -113 -53 -338 -160 -500
-237 -875 -416 -1093 -522 -1108 -541 -23 -28 -9 -51 48 -80 57 -28 549 -256
773 -357 70 -32 129 -54 132 -50 3 5 8 69 12 142 3 73 11 139 17 147 6 8 52
33 101 57 635 298 1454 296 2058 -7 45 -23 85 -46 88 -51 4 -5 10 -73 13 -151
4 -78 10 -145 12 -148 2 -4 91 34 197 85 265 128 351 166 376 166 21 0 21 -1
19 -192 l-3 -193 -35 -3 c-93 -7 -350 -56 -457 -87 -528 -150 -993 -485 -1209
-871 l-36 -64 -37 60 c-144 239 -380 472 -641 633 -316 195 -782 318 -1210
321 l-145 1 -3 -30 c-5 -51 69 -185 144 -260 66 -66 195 -152 271 -181 24 -9
43 -20 43 -24 0 -4 -21 -38 -46 -76 -136 -206 -218 -464 -239 -754 -7 -96 5
-260 29 -400 13 -72 12 -78 -11 -139 -34 -92 -69 -238 -89 -371 -50 -344 36
-752 223 -1063 19 -32 33 -60 30 -63 -2 -3 -67 19 -143 49 -230 90 -466 156
-704 196 -172 29 -261 35 -282 19 -11 -8 -81 -208 -188 -535 -93 -287 -175
-533 -182 -548 -9 -20 -26 -30 -80 -46 -37 -12 -79 -30 -93 -41 -24 -18 -25
-25 -25 -114 0 -87 2 -97 25 -119 23 -24 31 -25 137 -25 339 0 862 -36 1258
-86 440 -56 731 -116 1215 -251 228 -63 265 -79 294 -127 46 -73 142 -138 271
-182 69 -24 278 -27 355 -5 119 33 245 119 290 195 31 52 33 54 285 125 727
208 1309 294 2165 321 187 6 359 13 383 16 71 9 82 28 82 139 0 87 -2 98 -24
119 -14 15 -45 29 -79 36 -38 7 -63 19 -75 34 -10 13 -96 261 -192 551 -142
427 -179 530 -198 543 -19 13 -37 13 -130 3 -289 -32 -708 -147 -1005 -276
-12 -5 -6 13 25 66 244 432 288 931 124 1412 l-36 104 17 89 c13 66 17 142 17
294 0 184 -3 218 -27 332 -41 195 -113 369 -209 511 -22 33 -36 62 -32 67 5 4
46 31 92 59 l82 51 0 -85 c0 -81 1 -85 27 -102 20 -13 47 -18 99 -18 63 0 76
3 98 24 29 27 32 60 19 220 -5 70 -9 85 -25 89 -23 6 -23 15 1 36 27 25 91
157 91 188 0 30 -16 38 -71 38 -32 0 -41 4 -48 23 -4 12 -11 103 -15 201 -4
99 -10 192 -13 208 -5 27 -3 30 103 79 123 58 144 73 144 104 0 38 22 28
-1490 725 -344 159 -636 291 -650 295 -18 4 -61 -12 -160 -58z m-900 -2227
c49 -16 141 -55 204 -87 l116 -58 -93 0 c-78 0 -100 -4 -149 -27 -158 -73
-260 -260 -230 -421 33 -176 165 -305 346 -338 164 -30 362 70 432 219 39 83
43 251 8 347 -19 54 195 -183 256 -282 l32 -53 -60 -74 c-71 -89 -110 -166
-124 -250 -13 -73 -31 -95 -118 -147 -168 -99 -370 -136 -529 -94 -257 66
-454 254 -533 505 -19 63 -23 96 -22 205 0 115 3 139 28 210 15 44 41 104 58
134 61 106 209 241 266 241 13 0 64 -13 112 -30z m2307 -9 c100 -79 175 -187
219 -316 36 -108 45 -276 19 -389 -49 -223 -228 -432 -439 -511 -97 -36 -227
-57 -311 -50 -131 12 -344 102 -407 172 -9 10 -22 49 -28 86 -19 118 -65 211
-144 286 -41 39 -41 36 36 138 65 86 100 126 166 187 48 45 52 47 41 20 -7
-16 -12 -77 -12 -139 0 -131 20 -196 84 -269 54 -61 109 -92 210 -117 188 -48
352 16 456 178 106 166 71 383 -80 507 -76 62 -129 80 -234 81 -51 0 -93 1
-93 3 0 9 225 109 309 138 127 44 148 43 208 -5z m-1904 -322 c54 -42 56 -132
5 -186 -30 -32 -106 -32 -143 0 -49 42 -44 156 9 192 30 22 98 19 129 -6z
m1437 -9 c86 -92 -2 -243 -114 -196 -42 17 -66 60 -66 117 0 33 6 47 34 75 28
28 42 34 76 34 34 0 47 -6 70 -30z m-703 -618 c37 -62 42 -148 13 -231 -25
-74 -86 -174 -102 -169 -18 6 -78 122 -94 181 -28 107 -14 176 53 262 l45 57
30 -29 c16 -15 41 -47 55 -71z m-248 -541 c77 -111 130 -161 170 -161 33 0 92
58 185 183 32 42 60 77 63 77 2 0 19 -11 36 -24 51 -39 186 -103 267 -126 110
-32 332 -38 455 -12 50 11 91 18 93 17 2 -2 -11 -25 -27 -53 -87 -140 -149
-315 -246 -692 -40 -157 -89 -333 -108 -391 -68 -204 -164 -364 -316 -523 -85
-89 -384 -336 -406 -336 -19 0 -258 185 -345 266 -44 42 -107 110 -140 151
-161 200 -225 347 -330 763 -107 424 -166 598 -256 753 -27 46 -30 57 -17 53
148 -43 384 -33 553 24 78 26 214 93 255 125 24 19 32 21 40 10 6 -7 39 -54
74 -104z m-1329 12 c150 -151 254 -353 325 -632 13 -53 47 -202 75 -331 51
-237 84 -359 120 -447 l20 -48 -25 30 c-46 55 -95 133 -144 232 -49 98 -66
142 -181 470 -100 284 -174 438 -270 564 l-42 54 6 70 c7 83 15 115 28 115 6
0 45 -35 88 -77z m3080 68 c0 -5 5 -44 10 -85 l11 -76 -39 -52 c-107 -147
-165 -275 -296 -658 -96 -280 -183 -472 -267 -587 -29 -40 -54 -72 -55 -70 -2
1 12 43 31 92 33 88 69 229 155 605 85 370 183 578 359 763 70 73 91 89 91 68z
m-4057 -1311 c319 -62 634 -177 1033 -378 526 -266 908 -531 1348 -935 l41
-38 -65 34 c-519 277 -753 386 -1100 515 -487 180 -1088 302 -1499 302 -85 0
-93 2 -86 18 3 9 42 122 86 250 43 128 81 237 84 243 9 14 42 11 158 -11z
m5126 -7 c11 -28 171 -484 171 -488 0 -1 -60 -5 -132 -9 -509 -26 -1054 -141
-1547 -326 -288 -108 -558 -237 -918 -437 -84 -47 -157 -83 -163 -81 -10 3
165 163 355 324 344 292 997 666 1496 857 253 97 575 185 685 186 36 1 43 -3
53 -26z m-5039 -833 c146 -13 359 -44 525 -76 184 -36 478 -104 488 -114 5 -4
-12 -4 -38 1 -49 9 -515 68 -745 94 -258 29 -456 45 -550 45 -178 0 -223 12
-206 57 6 15 26 16 209 10 111 -4 254 -11 317 -17z m5314 5 c8 -23 -4 -45 -28
-49 -11 -3 -106 -10 -211 -16 -104 -6 -281 -18 -393 -25 -161 -11 -210 -12
-239 -2 -20 7 -38 17 -40 23 -5 15 358 64 538 74 265 13 366 12 373 -5z"/>
<path d="M4865 8539 c-214 -22 -514 -101 -655 -172 -78 -38 -77 -36 -86 -253
l-7 -150 94 -34 c329 -116 652 -333 830 -556 28 -35 57 -64 64 -64 7 0 29 22
48 48 43 58 190 200 272 263 164 126 330 217 538 294 70 26 127 53 128 59 3
45 -4 178 -14 261 l-12 100 -67 32 c-95 46 -278 108 -392 132 -213 46 -521 63
-741 40z"/>
<path d="M6541 2450 c-184 -39 -365 -148 -466 -282 -98 -129 -143 -257 -152
-433 -20 -401 217 -709 609 -789 99 -20 257 -20 356 0 151 31 324 123 330 174
3 30 -133 213 -162 218 -11 2 -58 -15 -106 -38 -111 -52 -201 -68 -303 -51
-200 33 -346 179 -378 379 -31 193 70 391 246 478 142 70 290 66 453 -11 47
-22 79 -32 88 -27 22 12 154 193 161 220 8 32 -15 54 -97 91 -133 61 -189 73
-370 77 -91 1 -185 -1 -209 -6z"/>
<path d="M1728 2429 c-17 -9 -18 -55 -18 -734 0 -706 0 -725 19 -735 13 -6
182 -10 480 -10 404 0 461 2 475 16 24 23 23 246 -1 265 -18 15 -72 18 -431
19 l-223 0 3 153 3 152 277 1 c208 1 281 4 293 14 12 10 15 36 15 127 0 63 -5
123 -10 134 -10 18 -24 19 -295 19 l-285 0 0 145 0 145 319 0 c277 0 322 2
335 16 13 12 16 40 16 139 0 113 -2 125 -19 135 -27 14 -929 13 -953 -1z"/>
<path d="M2947 2423 c-16 -18 -17 -69 -17 -730 0 -675 1 -711 18 -726 16 -15
51 -17 283 -17 329 0 455 11 574 51 245 82 423 276 481 526 19 79 20 242 4
334 -42 233 -197 422 -421 514 -134 55 -158 57 -544 62 -346 5 -361 4 -378
-14z m698 -299 c119 -30 235 -124 285 -228 124 -260 -17 -558 -297 -631 -72
-19 -343 -21 -361 -3 -17 17 -17 849 0 866 19 19 298 16 373 -4z"/>
<path d="M4494 2415 c-14 -22 -15 -76 -11 -517 5 -535 6 -544 63 -665 65 -136
210 -245 384 -289 94 -24 328 -15 425 16 213 67 349 210 390 408 21 99 18
1033 -3 1054 -19 19 -238 23 -272 5 l-25 -13 -5 -479 c-5 -478 -5 -480 -29
-532 -56 -124 -194 -187 -353 -162 -99 16 -167 62 -211 144 -21 39 -22 52 -27
531 -4 396 -8 494 -19 507 -11 14 -35 17 -152 17 -136 0 -139 0 -155 -25z"/>
<path d="M7427 2422 c-16 -17 -17 -82 -17 -730 l0 -711 22 -15 c17 -13 51 -16
149 -16 109 0 128 2 142 18 15 16 17 49 17 260 l0 242 94 0 93 0 142 -245 c79
-135 152 -252 164 -260 16 -11 52 -15 152 -15 141 0 175 10 175 52 0 12 -69
128 -153 258 l-154 236 73 38 c138 71 214 181 234 338 28 223 -78 428 -264
514 -99 45 -181 53 -532 54 -298 0 -322 -1 -337 -18z m706 -312 c75 -52 109
-167 71 -243 -49 -96 -105 -117 -316 -117 l-148 0 0 196 0 195 178 -3 c171 -3
180 -4 215 -28z"/>
</g>
</svg>
